<svg width="24" height="24" viewBox="0 0 24 24" fill="none" xmlns="http://www.w3.org/2000/svg">
<path d="M15.6233 14.87C15.0083 15.4147 14.2402 16.0926 12.8475 16.0926H12.0147C11.0069 16.0926 10.0903 15.727 9.43419 15.0643C8.79327 14.4168 8.44046 13.5306 8.44046 12.5686V11.4314C8.44046 10.4694 8.79327 9.5832 9.43419 8.93569C10.0903 8.27301 11.0069 7.90798 12.0147 7.90798H12.8475C14.2419 7.90798 15.0083 8.58526 15.6233 9.13C16.262 9.69159 16.8129 10.1824 18.2821 10.1824C18.5062 10.1824 18.7299 10.1645 18.9511 10.1291L18.9461 10.1161C18.8581 9.89804 18.7548 9.68637 18.6372 9.48268L17.6552 7.78499C17.2124 7.01967 16.5756 6.38416 15.8087 5.94233C15.0418 5.50049 14.1719 5.26791 13.2864 5.26794H11.322C10.4366 5.26791 9.56665 5.50049 8.79977 5.94233C8.03288 6.38416 7.39604 7.01967 6.95324 7.78499L5.97133 9.48268C5.52868 10.2481 5.29565 11.1163 5.29565 12C5.29565 12.8837 5.52868 13.7519 5.97133 14.5173L6.95324 16.215C7.39604 16.9803 8.03288 17.6158 8.79977 18.0577C9.56665 18.4995 10.4366 18.7321 11.322 18.7321H13.2864C14.1719 18.7321 15.0418 18.4995 15.8087 18.0577C16.5756 17.6158 17.2124 16.9803 17.6552 16.215L18.6372 14.5201C18.7548 14.3164 18.8581 14.1048 18.9461 13.8867L18.9511 13.8743C18.73 13.8376 18.5063 13.8189 18.2821 13.8181C16.8129 13.8181 16.262 14.3062 15.6233 14.8706" fill="#006BFF"/>
<path d="M12.8475 8.93854H12.0147C10.4808 8.93854 9.47302 10.032 9.47302 11.4314V12.5687C9.47302 13.9681 10.4808 15.0615 12.0147 15.0615H12.8475C15.0826 15.0615 14.907 12.7871 18.2821 12.7871C18.6019 12.7868 18.921 12.8161 19.2353 12.8747C19.3377 12.2961 19.3377 11.704 19.2353 11.1254C18.9209 11.1837 18.6019 11.2131 18.2821 11.213C14.9059 11.213 15.0826 8.93854 12.8475 8.93854Z" fill="#006BFF"/>
<path d="M21.1744 13.7059C20.5996 13.2857 19.9368 13.0014 19.2359 12.8742C19.2359 12.8803 19.2359 12.8854 19.2359 12.891C19.1755 13.2263 19.0813 13.5547 18.9545 13.871C19.5335 13.9605 20.0829 14.1863 20.5571 14.5297C20.5571 14.5342 20.5543 14.5398 20.5526 14.5449C19.9422 16.5173 18.6433 18.2058 16.8916 19.3036C15.14 20.4015 13.0519 20.8358 11.0066 20.5278C8.96134 20.2198 7.09463 19.1898 5.74556 17.625C4.3965 16.0602 3.65458 14.0644 3.65458 12C3.65458 9.93571 4.3965 7.93986 5.74556 6.37505C7.09463 4.81023 8.96134 3.78027 11.0066 3.47225C13.0519 3.16423 15.14 3.5986 16.8916 4.69645C18.6433 5.7943 19.9422 7.48279 20.5526 9.4552C20.5526 9.46025 20.5554 9.46587 20.5571 9.47036C20.083 9.81385 19.5336 10.0395 18.9545 10.1285C19.0811 10.4453 19.1754 10.774 19.2359 11.1096C19.2356 11.1149 19.2356 11.1201 19.2359 11.1254C19.9368 10.9984 20.5996 10.7142 21.1744 10.2942C21.7269 9.88594 21.62 9.42487 21.5362 9.15194C20.853 6.94046 19.3975 5.04698 17.4343 3.81556C15.471 2.58414 13.1303 2.09651 10.8374 2.44127C8.54449 2.78604 6.4516 3.94032 4.93904 5.69437C3.42647 7.44843 2.5946 9.68584 2.5946 12C2.5946 14.3142 3.42647 16.5517 4.93904 18.3057C6.4516 20.0598 8.54449 21.214 10.8374 21.5588C13.1303 21.9036 15.471 21.4159 17.4343 20.1845C19.3975 18.9531 20.853 17.0596 21.5362 14.8481C21.62 14.5752 21.7269 14.1141 21.1744 13.7059Z" fill="#006BFF"/>
<path d="M18.9511 10.1285C18.73 10.1652 18.5062 10.184 18.2821 10.1847C16.8129 10.1847 16.262 9.69665 15.6239 9.13225C15.0083 8.58751 14.2419 7.90967 12.8475 7.90967H12.0147C11.0063 7.90967 10.0903 8.27526 9.43416 8.93794C8.79324 9.58545 8.44043 10.4716 8.44043 11.4336V12.5709C8.44043 13.5329 8.79324 14.4191 9.43416 15.0666C10.0903 15.7292 11.0063 16.0943 12.0147 16.0943H12.8475C14.2419 16.0943 15.0083 15.417 15.6239 14.8723C16.262 14.3107 16.8129 13.8198 18.2821 13.8198C18.5061 13.8199 18.7299 13.8377 18.9511 13.8732C19.0781 13.557 19.1724 13.2286 19.2325 12.8932C19.2328 12.8876 19.2328 12.882 19.2325 12.8764C18.9181 12.8182 18.599 12.7891 18.2793 12.7893C14.903 12.7893 15.0797 15.0643 12.8447 15.0643H12.0119C10.478 15.0643 9.47017 13.9703 9.47017 12.5709V11.4314C9.47017 10.0319 10.478 8.9385 12.0119 8.9385H12.8447C15.0797 8.9385 14.9042 11.2124 18.2793 11.2124C18.599 11.2129 18.9181 11.1838 19.2325 11.1253C19.2325 11.1203 19.2325 11.1152 19.2325 11.1096C19.172 10.774 19.0777 10.4453 18.9511 10.1285Z" fill="#0AE8F0"/>
<path d="M18.9511 10.1285C18.73 10.1652 18.5062 10.184 18.2821 10.1847C16.8129 10.1847 16.262 9.69665 15.6239 9.13225C15.0083 8.58751 14.2419 7.90967 12.8475 7.90967H12.0147C11.0063 7.90967 10.0903 8.27526 9.43416 8.93794C8.79324 9.58545 8.44043 10.4716 8.44043 11.4336V12.5709C8.44043 13.5329 8.79324 14.4191 9.43416 15.0666C10.0903 15.7292 11.0063 16.0943 12.0147 16.0943H12.8475C14.2419 16.0943 15.0083 15.417 15.6239 14.8723C16.262 14.3107 16.8129 13.8198 18.2821 13.8198C18.5061 13.8199 18.7299 13.8377 18.9511 13.8732C19.0781 13.557 19.1724 13.2286 19.2325 12.8932C19.2328 12.8876 19.2328 12.882 19.2325 12.8764C18.9181 12.8182 18.599 12.7891 18.2793 12.7893C14.903 12.7893 15.0797 15.0643 12.8447 15.0643H12.0119C10.478 15.0643 9.47017 13.9703 9.47017 12.5709V11.4314C9.47017 10.0319 10.478 8.9385 12.0119 8.9385H12.8447C15.0797 8.9385 14.9042 11.2124 18.2793 11.2124C18.599 11.2129 18.9181 11.1838 19.2325 11.1253C19.2325 11.1203 19.2325 11.1152 19.2325 11.1096C19.172 10.774 19.0777 10.4453 18.9511 10.1285Z" fill="#0AE8F0"/>
</svg>
