<svg width="56" height="56" viewBox="0 0 56 56" fill="none" xmlns="http://www.w3.org/2000/svg">
<circle cx="28" cy="28" r="27.5" stroke="#543021"/>
<path d="M23 16H33C34.8565 16 36.637 16.7375 37.9497 18.0503C39.2625 19.363 40 21.1435 40 23V33C40 34.8565 39.2625 36.637 37.9497 37.9497C36.637 39.2625 34.8565 40 33 40H23C21.1435 40 19.363 39.2625 18.0503 37.9497C16.7375 36.637 16 34.8565 16 33V23C16 21.1435 16.7375 19.363 18.0503 18.0503C19.363 16.7375 21.1435 16 23 16ZM22.72 18.4C22.1523 18.3987 21.59 18.5095 21.0652 18.7262C20.5405 18.9428 20.0638 19.2609 19.6624 19.6624C19.2609 20.0638 18.9428 20.5405 18.7262 21.0652C18.5095 21.59 18.3987 22.1523 18.4 22.72V33.28C18.3987 33.8477 18.5095 34.41 18.7262 34.9348C18.9428 35.4595 19.2609 35.9362 19.6624 36.3376C20.0638 36.7391 20.5405 37.0572 21.0652 37.2738C21.59 37.4905 22.1523 37.6013 22.72 37.6H33.28C33.8477 37.6013 34.41 37.4905 34.9348 37.2738C35.4595 37.0572 35.9362 36.7391 36.3376 36.3376C36.7391 35.9362 37.0572 35.4595 37.2738 34.9348C37.4905 34.41 37.6013 33.8477 37.6 33.28V22.72C37.6013 22.1523 37.4905 21.59 37.2738 21.0652C37.0572 20.5405 36.7391 20.0638 36.3376 19.6624C35.9362 19.2609 35.4595 18.9428 34.9348 18.7262C34.41 18.5095 33.8477 18.3987 33.28 18.4H22.72ZM34.3 20.2C34.5967 20.2 34.8867 20.288 35.1334 20.4528C35.38 20.6176 35.5723 20.8519 35.6858 21.126C35.7994 21.4001 35.8291 21.7017 35.7712 21.9926C35.7133 22.2836 35.5704 22.5509 35.3607 22.7607C35.1509 22.9704 34.8836 23.1133 34.5926 23.1712C34.3017 23.2291 34.0001 23.1994 33.726 23.0858C33.4519 22.9723 33.2176 22.78 33.0528 22.5334C32.888 22.2867 32.8 21.9967 32.8 21.7C32.8 21.3022 32.958 20.9206 33.2393 20.6393C33.5206 20.358 33.9022 20.2 34.3 20.2ZM28 22C29.1867 22 30.3467 22.3519 31.3334 23.0112C32.3201 23.6705 33.0892 24.6075 33.5433 25.7039C33.9974 26.8003 34.1162 28.0067 33.8847 29.1705C33.6532 30.3344 33.0818 31.4035 32.2426 32.2426C31.4035 33.0818 30.3344 33.6532 29.1705 33.8847C28.0067 34.1162 26.8003 33.9974 25.7039 33.5433C24.6075 33.0892 23.6705 32.3201 23.0112 31.3334C22.3519 30.3467 22 29.1867 22 28C22 26.4087 22.6321 24.8826 23.7574 23.7574C24.8826 22.6321 26.4087 22 28 22ZM28 24.4C27.288 24.4 26.592 24.6111 25.9999 25.0067C25.4079 25.4023 24.9465 25.9645 24.674 26.6223C24.4016 27.2802 24.3303 28.004 24.4692 28.7023C24.6081 29.4007 24.9509 30.0421 25.4544 30.5456C25.9579 31.0491 26.5993 31.3919 27.2977 31.5308C27.996 31.6697 28.7198 31.5984 29.3777 31.326C30.0355 31.0535 30.5977 30.5921 30.9933 30.0001C31.3889 29.408 31.6 28.712 31.6 28C31.6 27.0452 31.2207 26.1295 30.5456 25.4544C29.8705 24.7793 28.9548 24.4 28 24.4Z" fill="#543021"/>
</svg>
