<svg width="56" height="56" viewBox="0 0 56 56" fill="none" xmlns="http://www.w3.org/2000/svg">
<circle cx="28" cy="28" r="27.5" stroke="#543021"/>
<path d="M38.2 16H17.8C17.3226 16 16.8648 16.1896 16.5272 16.5272C16.1896 16.8648 16 17.3226 16 17.8V38.2C16 38.6774 16.1896 39.1352 16.5272 39.4728C16.8648 39.8104 17.3226 40 17.8 40H38.2C38.6774 40 39.1352 39.8104 39.4728 39.4728C39.8104 39.1352 40 38.6774 40 38.2V17.8C40 17.3226 39.8104 16.8648 39.4728 16.5272C39.1352 16.1896 38.6774 16 38.2 16ZM23.2 36.4H19.6V25.6H23.2V36.4ZM21.4 23.5C20.9874 23.4882 20.5875 23.3551 20.2501 23.1173C19.9127 22.8795 19.6529 22.5475 19.5032 22.1629C19.3534 21.7783 19.3202 21.3581 19.4079 20.9548C19.4956 20.5514 19.7002 20.1829 19.9961 19.8952C20.2921 19.6074 20.6662 19.4133 21.0719 19.337C21.4775 19.2608 21.8966 19.3057 22.2769 19.4663C22.6571 19.6268 22.9816 19.8959 23.2098 20.2398C23.438 20.5837 23.5598 20.9873 23.56 21.4C23.5505 21.9644 23.318 22.5021 22.9133 22.8956C22.5085 23.2891 21.9645 23.5064 21.4 23.5ZM36.4 36.4H32.8V30.712C32.8 29.008 32.08 28.396 31.144 28.396C30.8696 28.4143 30.6015 28.4866 30.3551 28.6088C30.1087 28.731 29.8888 28.9006 29.7082 29.108C29.5275 29.3154 29.3897 29.5565 29.3025 29.8173C29.2152 30.0782 29.1804 30.3537 29.2 30.628C29.194 30.6838 29.194 30.7402 29.2 30.796V36.4H25.6V25.6H29.08V27.16C29.431 26.626 29.9133 26.1911 30.4806 25.8969C31.0479 25.6028 31.6813 25.4592 32.32 25.48C34.18 25.48 36.352 26.512 36.352 29.872L36.4 36.4Z" fill="#543021"/>
</svg>
