<svg width="48" height="67" viewBox="0 0 48 67" fill="none" xmlns="http://www.w3.org/2000/svg">
<ellipse cx="24" cy="23.9347" rx="24" ry="23.9347" fill="#C97043"/>
<path d="M13.2002 17.951H34.8002M13.2002 23.9347H34.8002M13.2002 29.9184H34.8002" stroke="white" stroke-width="2" stroke-linecap="round"/>
<path d="M13.8594 65.7122L13.8575 65.7048L13.8549 65.6976C13.6278 65.0703 13.5039 64.2263 13.5039 63.5946V54.9242C13.5039 54.2739 13.6279 53.4306 13.8544 52.8224L13.8573 52.8146L13.8594 52.8065L13.8774 52.7347L13.9241 52.5483H13.7319H11.8239H11.7183L11.6827 52.6477L7.91853 63.1482L4.18922 52.6481L4.15378 52.5483H4.04787H2.06787H1.87563L1.92237 52.7347L1.94037 52.8066L1.9424 52.8146L1.9453 52.8224C2.17182 53.4306 2.29587 54.2739 2.29587 54.9242V63.5946C2.29587 64.2263 2.17198 65.0703 1.94483 65.6976L1.94223 65.7048L1.94037 65.7122L1.92237 65.784L1.87563 65.9705H2.06787H3.00387H3.19612L3.14937 65.784L3.13137 65.7122L3.1318 65.7121L3.12813 65.7011C2.91698 65.0694 2.77587 64.2238 2.77587 63.5946V54.0882L6.96654 65.8708L7.00202 65.9705H7.10787H7.32387H7.42944L7.46507 65.8711L11.6919 54.0817V63.5946C11.6919 64.2263 11.568 65.0703 11.3408 65.6976L11.3382 65.7048L11.3364 65.7122L11.3184 65.784L11.2716 65.9705H11.4639H13.7319H13.9241L13.8774 65.784L13.8594 65.7122ZM24.5628 62.9419H24.4628L24.4243 63.0343C24.0482 63.9378 22.9279 65.114 21.0168 65.114C19.8854 65.114 18.9234 64.6984 18.2432 63.9513C17.5621 63.2032 17.1528 62.1108 17.1528 60.7403C17.1528 60.4336 17.1661 60.1567 17.2037 59.8851H24.3648H24.5148V59.7351L24.5148 59.5556L24.5148 59.554C24.4957 57.7289 22.8239 56.1026 20.2428 56.1026C18.8118 56.1026 17.5843 56.605 16.7142 57.4797C15.8442 58.3543 15.3408 59.5919 15.3408 61.0455C15.3408 64.3225 17.9099 66.15 20.6208 66.15C21.7385 66.15 22.6397 65.8454 23.346 65.3119C24.051 64.7793 24.5517 64.0263 24.8832 63.1447L24.9595 62.9419H24.7428H24.5628ZM26.0908 56.3H25.6009L26.0069 56.5743C26.1151 56.6475 26.2045 56.7673 26.2761 56.9302C26.3475 57.0929 26.3972 57.2895 26.4309 57.5034C26.4985 57.9319 26.4988 58.4048 26.4988 58.7657V63.5946C26.4988 64.2263 26.3749 65.0703 26.1478 65.6976L26.1452 65.7048L26.1433 65.7122L26.1253 65.784L26.0786 65.9705H26.2708H28.5388H28.7311L28.6843 65.784L28.6663 65.7122L28.6645 65.7048L28.6619 65.6976C28.4347 65.0703 28.3108 64.2263 28.3108 63.5946V60.2563C28.6486 59.6095 29.2212 58.7821 29.9017 58.1144C30.5986 57.4304 31.3809 56.9411 32.1208 56.9411C32.6736 56.9411 33.0957 57.2083 33.3871 57.696C33.6829 58.1912 33.8428 58.9148 33.8428 59.8069V63.5946C33.8428 64.2263 33.7189 65.0703 33.4918 65.6976L33.4892 65.7048L33.4873 65.7122L33.4693 65.784L33.4226 65.9705H33.6148H35.8648H36.0571L36.0103 65.784L35.9923 65.7122L35.9928 65.7121L35.9891 65.7011C35.7779 65.0694 35.6368 64.2238 35.6368 63.5946V59.4299C35.6368 58.4249 35.3594 57.5939 34.873 57.0114C34.3848 56.4267 33.6943 56.1026 32.8948 56.1026C31.8716 56.1026 30.8568 56.6486 30.0054 57.3724C29.3224 57.9531 28.7317 58.659 28.3108 59.322V57.6348C28.3108 57.2491 28.1763 56.913 27.9332 56.6731C27.6902 56.4334 27.3492 56.3 26.9548 56.3H26.0908ZM43.3311 64.7788C44.0225 64.1586 44.6169 63.4137 45.0384 62.7377V64.7075C45.0384 65.0726 45.1577 65.391 45.3834 65.6187C45.6092 65.8465 45.9288 65.9705 46.3044 65.9705H47.0604H47.3034L47.1945 65.7533L47.1642 65.6928C46.9717 65.0599 46.8324 64.2198 46.8324 63.5946V57.6348C46.8324 57.2491 46.6979 56.9133 46.4576 56.6737C46.2173 56.434 45.8808 56.3 45.4944 56.3H44.6304H44.1404L44.5464 56.5743C44.6547 56.6475 44.7441 56.7673 44.8157 56.9302C44.8871 57.0929 44.9368 57.2895 44.9705 57.5034C45.0381 57.9319 45.0384 58.4048 45.0384 58.7657V61.764L45.0371 61.7667C44.7005 62.4204 44.1191 63.3098 43.42 64.0334C42.7151 64.7631 41.9201 65.2935 41.1564 65.2935C40.6227 65.2935 40.2141 65.032 39.9312 64.5507C39.644 64.0621 39.4884 63.3471 39.4884 62.4636V57.6348C39.4884 57.2507 39.3594 56.9147 39.1209 56.6743C38.8822 56.4336 38.545 56.3 38.1504 56.3H37.2864H36.8116L37.2003 56.5728C37.3934 56.7084 37.5189 56.9855 37.5915 57.3521C37.6628 57.7117 37.6764 58.1213 37.6764 58.4785V62.8406C37.6764 63.8463 37.9587 64.6726 38.4427 65.2504C38.9281 65.8299 39.6093 66.15 40.3824 66.15C41.436 66.15 42.4698 65.5514 43.3311 64.7788ZM22.8062 59.4056H17.2956C17.6867 57.6858 18.8205 56.6 20.2248 56.6C21.7891 56.6 22.731 57.9026 22.8062 59.4056Z" fill="#C97043" stroke="#C97043" stroke-width="0.3"/>
</svg>
