<svg width="16" height="23" viewBox="0 0 16 23" fill="none" xmlns="http://www.w3.org/2000/svg">
<g id="we-up-design">
<path id="Path 268" d="M15.6231 0.697482C15.4874 0.530514 15.3209 0.392952 15.1334 0.292738C14.9459 0.192524 14.7411 0.131643 14.5306 0.113607L13.341 0.00648805C13.1305 -0.0127808 12.9185 0.0109719 12.7169 0.0763873C12.5153 0.141803 12.3282 0.247598 12.1663 0.387722C12.0043 0.527846 11.8708 0.69955 11.7732 0.893014C11.6756 1.08648 11.6159 1.29791 11.5975 1.51521L11.1642 6.62901L10.7308 1.51521C10.7124 1.29791 10.6527 1.08648 10.5552 0.893014C10.4576 0.69955 10.324 0.527846 10.162 0.387722C10.0001 0.247598 9.813 0.141803 9.61143 0.0763873C9.40985 0.0109719 9.19777 -0.0127808 8.9873 0.00648805L7.79766 0.113607C7.58717 0.132584 7.38236 0.194213 7.19496 0.294968C7.00755 0.395723 6.84123 0.533627 6.70549 0.700795C6.56975 0.867963 6.46727 1.06111 6.40391 1.2692C6.34054 1.47729 6.31753 1.69623 6.3362 1.91351L6.66137 5.75018C6.57111 5.73411 6.47968 5.72604 6.38808 5.72604H5.19187C4.89051 5.72598 4.5952 5.81336 4.33963 5.97822C4.08406 6.14308 3.87853 6.37878 3.74647 6.65843C3.47258 6.45275 3.14253 6.34208 2.80383 6.34235H1.60762C1.18125 6.34235 0.772348 6.5172 0.470861 6.82844C0.169375 7.13967 2.05187e-06 7.5618 2.05187e-06 8.00195V15.4082C-0.000670638 16.2743 0.164065 17.1319 0.484784 17.9321C0.805503 18.7324 1.27591 19.4595 1.8691 20.0718C2.46228 20.6842 3.16661 21.1698 3.94177 21.5009C4.71693 21.832 5.54773 22.002 6.38662 22.0014H8.77539C9.61428 22.002 10.4451 21.832 11.2202 21.5009C11.9954 21.1698 12.6997 20.6842 13.2929 20.0718C13.8861 19.4595 14.3565 18.7324 14.6772 17.9321C14.9979 17.1319 15.1627 16.2743 15.162 15.4082V15.3041C15.3481 15.1481 15.4982 14.9512 15.6015 14.7279C15.7047 14.5045 15.7586 14.2602 15.759 14.0127V12.7778C15.759 12.5345 15.7071 12.2942 15.6071 12.0739C15.5071 11.8536 15.3614 11.6586 15.1803 11.5029L15.9936 1.90974C16.0125 1.69242 15.9895 1.47339 15.9259 1.26531C15.8623 1.05723 15.7594 0.864236 15.6231 0.697482ZM7.87001 0.96377L9.0611 0.855897C9.26708 0.837483 9.47171 0.904192 9.63008 1.04138C9.78846 1.17857 9.88763 1.37503 9.90583 1.58763L10.7133 11.1167H7.99569V7.38413C7.99613 6.94814 7.82991 6.52959 7.53314 6.21939L7.16119 1.83581C7.14336 1.62318 7.20798 1.41193 7.34087 1.24843C7.47376 1.08494 7.66407 0.982559 7.87001 0.96377ZM4.41217 7.38413C4.41237 7.17071 4.49458 6.9661 4.64075 6.8152C4.78693 6.66429 4.98514 6.57942 5.19187 6.57922H6.38662C6.59334 6.57942 6.79155 6.66429 6.93773 6.8152C7.08391 6.9661 7.16612 7.17071 7.16631 7.38413V11.1107H4.41217V7.38413ZM0.831577 8.00044C0.831767 7.78768 0.913473 7.58363 1.05886 7.43283C1.20425 7.28204 1.40152 7.19673 1.60762 7.19554H2.8031C3.00945 7.19633 3.20709 7.28146 3.35279 7.4323C3.4985 7.58314 3.58041 7.78742 3.5806 8.00044V10.4664C3.5804 10.6799 3.4982 10.8845 3.35202 11.0354C3.20584 11.1863 3.00763 11.2711 2.80091 11.2713H1.60762C1.40089 11.2711 1.20268 11.1863 1.0565 11.0354C0.910325 10.8845 0.828117 10.6799 0.827924 10.4664V8.00044H0.831577ZM14.9347 14.0112C14.9345 14.1525 14.8983 14.2914 14.8298 14.4138C14.7613 14.5362 14.663 14.638 14.5445 14.709L14.3385 14.8319V15.4067C14.336 16.9265 13.75 18.3832 12.7091 19.4578C11.6681 20.5324 10.257 21.1373 8.78489 21.1399H6.38662C4.91455 21.1371 3.50354 20.5322 2.46263 19.4576C1.42172 18.383 0.835743 16.9264 0.833039 15.4067V11.9186C1.07147 12.0555 1.33988 12.1272 1.61273 12.1268H2.51738C2.43225 12.3326 2.38849 12.554 2.38877 12.7778C2.38974 13.545 2.68537 14.2804 3.21085 14.8229C3.73632 15.3653 4.44874 15.6705 5.19187 15.6715H7.74578C7.37531 16.1148 7.1717 16.6808 7.17216 17.2662C7.17665 17.3767 7.2223 17.481 7.29958 17.5575C7.37686 17.634 7.47978 17.6767 7.58685 17.6767C7.69391 17.6767 7.79684 17.634 7.87411 17.5575C7.95139 17.481 7.99705 17.3767 8.00154 17.2662C8.00212 16.8441 8.16483 16.4394 8.45399 16.1409C8.74315 15.8423 9.13518 15.6744 9.54412 15.6738H9.58285H10.7718C10.8787 15.6691 10.9798 15.622 11.0539 15.5422C11.128 15.4625 11.1694 15.3562 11.1694 15.2457C11.1694 15.1352 11.128 15.0289 11.0539 14.9491C10.9798 14.8694 10.8787 14.8222 10.7718 14.8176H5.19187C4.6686 14.8176 4.16676 14.603 3.79676 14.221C3.42675 13.8391 3.21889 13.321 3.21889 12.7808C3.21908 12.5674 3.30129 12.3628 3.44747 12.2119C3.59364 12.061 3.79185 11.9761 3.99858 11.9759H14.1499C14.3567 11.9761 14.5549 12.061 14.701 12.2119C14.8472 12.3628 14.9294 12.5674 14.9296 12.7808L14.9347 14.0112ZM14.155 11.1175H11.6187L12.4225 1.58763C12.4407 1.37503 12.5399 1.17857 12.6982 1.04138C12.8566 0.904192 13.0612 0.837483 13.2672 0.855897L14.4568 0.963016C14.6628 0.981805 14.8531 1.08418 14.986 1.24768C15.1189 1.41117 15.1835 1.62242 15.1657 1.83506L14.3787 11.134C14.3029 11.1229 14.2265 11.1174 14.1499 11.1175" fill="#543021"/>
</g>
</svg>
