<svg width="36" height="48" viewBox="0 0 36 48" fill="none" xmlns="http://www.w3.org/2000/svg">
<path d="M28.1863 34.5267C28.1343 34.3906 28.0786 34.2554 28.022 34.122C27.7692 33.5399 27.4671 32.988 27.1239 32.4611C26.6448 31.7235 26.0844 31.0365 25.4656 30.3872C25.3551 30.2713 25.2429 30.1554 25.1279 30.0405C23.0333 27.9546 20.5051 26.3498 20.5051 26.3498C18.8084 25.2738 17.6301 24.5555 16.764 24.0386C15.8048 23.4666 15.1494 23.1668 14.2048 22.4945C13.377 21.905 12.7208 21.298 11.9769 20.6266C11.3882 20.096 10.9994 19.7428 10.5075 19.2002C10.2264 18.8903 10.335 18.9841 9.44695 17.9457C9.02438 17.4519 8.85918 17.2652 8.64014 16.947C8.35173 16.5285 8.16006 16.1551 8.0405 15.9013C7.96018 16.4908 7.86526 17.3958 7.86983 18.5086C7.87348 19.4632 7.95927 19.9313 7.99669 21.1278C8.0259 22.0521 8.00217 22.9782 8.01494 23.9025C8.04141 25.8127 8.06879 27.7238 8.09526 29.634C8.09526 30.5233 7.72106 31.7088 7.02559 32.5999L6.97174 32.6983H9.75636L9.70251 32.5999C9.06089 31.7088 8.63283 30.5233 8.63283 29.634L8.48772 20.6045C8.97509 21.7781 9.66965 22.8302 10.5011 23.7977C10.9292 24.298 11.3965 24.7753 11.8893 25.2342C13.9456 27.1444 16.482 28.7465 18.834 30.3835C20.3344 31.4264 21.761 32.4868 22.9402 33.6511C23.4987 34.202 24.0025 34.7777 24.4333 35.3847C24.6022 35.6211 24.7591 35.8648 24.9034 36.1122C25.6025 37.3133 26.0141 38.645 26.0141 40.1744C26.0141 44.3838 22.9767 47.462 18.7728 47.462C13.4865 47.462 9.99 42.3329 9.99 34.8844H6.82662C6.82662 38.3056 7.69459 41.2146 9.2489 43.4172C11.1984 46.1855 14.2313 47.8372 17.9925 47.989C18.1321 47.9954 18.2736 47.9982 18.415 47.9982C18.4643 48 18.5154 48 18.5647 48C24.1714 48 28.0786 44.7802 28.7741 39.9721C28.8498 39.4626 28.8872 38.9356 28.8872 38.393C28.8872 38.0325 28.8708 37.6839 28.8389 37.3418C28.7458 36.3302 28.5203 35.3967 28.1872 34.5276L28.1863 34.5267Z" fill="#C97043"/>
<path d="M6.65321 10.8458C6.57837 10.4338 6.51083 9.90129 6.50627 9.27866C6.50444 9.10209 6.50444 8.46475 6.645 7.60576C6.75452 6.93716 6.96991 6.00368 7.429 4.93317C5.58628 7.01257 -0.213868 14.0923 0.00608977 24.1315C0.116525 29.1723 1.86615 33.1996 1.86615 33.1996C2.9988 35.7738 4.42625 37.6527 5.49227 38.8593C5.37909 37.3519 5.26683 35.8437 5.15366 34.3363C4.75755 33.2428 4.31399 31.8191 3.9699 30.1223C3.64042 28.4982 3.5309 27.2566 3.4588 26.4132C3.30273 24.5794 3.16947 22.1091 3.59205 18.973C3.98907 16.0328 5.02406 13.3142 6.65321 10.8467V10.8458Z" fill="#C97043"/>
<path d="M35.9998 24.1315C36.03 15.2446 31.8161 9.13427 30.4078 7.2572C30.7218 8.30104 31.0111 9.56928 31.1589 11.027C31.2511 11.9365 31.273 12.778 31.2548 13.5331C31.9365 16.0604 32.6238 19.695 32.4832 24.0809C32.3263 28.9929 31.1927 32.9402 30.2234 35.5365C30.3165 36.1168 30.3859 36.7633 30.4078 37.4651C30.4552 38.9678 30.2709 40.2701 30.0391 41.2992C31.4638 39.4828 35.9697 33.2768 35.9998 24.1315Z" fill="#C97043"/>
<path d="M29.7534 15.0736L29.7844 14.9807H26.371L21.6943 19.0953C18.3274 16.8964 14.7889 14.9007 12.698 12.2925C12.5209 12.0717 12.3539 11.8473 12.1996 11.6165C11.3417 10.3492 10.8315 8.93286 10.8315 7.28572C10.8315 3.3458 13.7238 0.593194 17.7752 0.593194C23.2048 0.593194 26.0981 5.55947 26.1419 13.1165H29.4805C29.4814 5.18056 24.8522 0 17.8647 0C11.8546 0 7.76121 3.77805 7.76121 9.17382C7.76121 10.7925 8.12264 12.218 8.74509 13.5C9.00704 14.038 9.31461 14.5494 9.66235 15.0405C11.7716 18.0202 15.3256 20.1898 18.6952 22.3446L20.9304 20.3213L26.4047 15.653V25.8706C26.4047 26.702 26.1793 27.8112 25.7613 28.6435L25.7284 28.7364H29.7862L29.7552 28.6435C29.3345 27.8102 29.1109 26.702 29.1109 25.8706V17.8464C29.1109 16.993 29.3345 15.8829 29.7552 15.0736H29.7534Z" fill="#C97043"/>
</svg>
