<svg width="185" height="42" viewBox="0 0 185 42" fill="none" xmlns="http://www.w3.org/2000/svg">
<path d="M1.13728 9.92029C1.13728 4.41001 6.1159 0.551251 13.4217 0.551251C21.9173 0.551251 27.5468 5.84282 27.5468 13.9442H23.4885C23.4337 6.22669 19.9167 1.15607 13.3143 1.15607C8.39046 1.15607 4.87125 3.96812 4.87125 7.9898C4.87125 18.4078 28.684 19.7848 28.684 32.1868C28.684 37.9739 23.3263 41.9978 15.2624 41.9978C6.06112 42 0 36.7084 0 28.6048H4.11306C4.11306 36.2107 8.65999 41.4465 15.5319 41.4465C20.997 41.4465 24.9479 38.3042 24.9479 34.0057C24.9479 23.5878 1.13509 22.1014 1.13509 9.91806L1.13728 9.92029Z" fill="#543021"/>
<path d="M53.5224 0.551251C65.752 0.551251 73.8707 8.87359 73.8707 21.2756C73.8707 33.6777 65.752 42 53.5224 42C41.2927 42 33.174 33.7335 33.174 21.2756C33.174 8.81779 41.2927 0.551251 53.5224 0.551251ZM53.415 41.4487C63.0479 41.4487 69.3808 33.4009 69.3808 21.2198C69.3808 9.03874 63.1027 1.15607 53.5224 1.15607C43.942 1.15607 37.7187 9.20389 37.7187 21.3292C37.7187 33.4545 43.942 41.4465 53.4128 41.4465L53.415 41.4487Z" fill="#543021"/>
<path d="M114.298 41.4487H107.479L107.533 41.2278C108.237 39.2437 108.616 36.5968 108.616 34.6128V2.75626L95.032 41.4487H94.3834L80.907 2.75626V34.615C80.907 36.5991 81.3408 39.246 81.9895 41.23L82.0442 41.451H79.2306L79.2854 41.23C79.9888 39.246 80.3679 36.5991 80.3679 34.615V7.99203C80.3679 5.95218 79.9888 3.30751 79.2854 1.37701L79.2306 1.15607H85.1844L96.8201 34.6128L108.561 1.15607H114.298L114.243 1.37701C113.54 3.30528 113.161 5.95218 113.161 7.99203V34.6128C113.161 36.5968 113.54 39.2437 114.243 41.2278L114.298 41.4487Z" fill="#543021"/>
<path d="M137.219 0.551251C146.701 0.551251 152.996 7.00335 152.996 16.6201C152.996 26.2369 146.703 32.689 137.219 32.689C127.735 32.689 121.442 26.2793 121.442 16.6201C121.442 6.96095 127.737 0.551251 137.219 0.551251ZM137.136 32.2605C144.603 32.2605 149.514 26.0204 149.514 16.5777C149.514 7.13502 144.647 1.02216 137.221 1.02216C129.795 1.02216 124.969 7.26224 124.969 16.6625C124.969 26.0628 129.795 32.2605 137.138 32.2605H137.136Z" fill="#543021"/>
<path d="M157.453 9.36904C157.453 3.85653 162.432 0 169.738 0C178.233 0 183.863 5.29157 183.863 13.393H179.804C179.75 5.67543 176.233 0.604814 169.63 0.604814C164.706 0.604814 161.187 3.41687 161.187 7.43855C161.187 17.8565 185 19.2335 185 31.6356C185 37.4226 179.642 41.4465 171.578 41.4465C162.377 41.4465 156.316 36.1549 156.316 28.0536H160.429C160.429 35.6595 164.976 40.8953 171.848 40.8953C177.313 40.8953 181.264 37.7529 181.264 33.4545C181.264 23.0365 157.451 21.5501 157.451 9.36681L157.453 9.36904Z" fill="#543021"/>
<path d="M42.4432 4.62649C38.5558 9.02758 36.3842 15.3725 38.1176 21.0324C40.6266 28.4285 52.1506 27.085 58.3717 26.5159C63.2955 25.9334 68.1712 24.4247 72.5603 22.0143C77.0043 19.6643 81.2751 16.6737 86.1376 14.8101C100.872 8.98964 118.225 14.5981 127.086 27.875L126.589 28.2187C118.161 15.0869 100.701 9.75068 86.5649 15.9126C81.9281 17.8476 77.8698 20.9766 73.3974 23.5744C68.8439 26.1476 64.2115 28.5535 59.2592 30.3456C51.5349 32.9613 40.5674 34.5838 35.1834 26.739C30.3757 19.0684 34.9796 8.04113 42.0707 4.14666L42.4432 4.62873V4.62649Z" fill="#543021"/>
</svg>
