<svg width="191" height="245" viewBox="0 0 191 245" fill="none" xmlns="http://www.w3.org/2000/svg">
<g clip-path="url(#clip0_212_328)">
<path d="M450.538 -54.5919C453.543 -18.1579 462.064 12.7675 471.254 39.7058C474.914 50.4332 478.68 60.5324 482.246 70.0912C483.156 72.5315 484.053 74.9365 484.932 77.3078C489.255 88.973 493.136 99.8205 495.976 110.054C501.657 130.521 503.156 148.458 495.757 165.467C488.354 182.484 472 198.669 441.745 215.518C383.909 247.727 308.045 226.408 245.038 178.719C182.048 131.043 132.111 57.1485 126.127 -15.4263C120.136 -88.0749 138.594 -148.432 174.164 -191.911C209.734 -235.39 262.448 -262.032 325.049 -267.194C356.315 -269.773 379.305 -263.081 396.336 -250.321C413.375 -237.554 424.505 -218.67 431.961 -196.761C439.418 -174.85 443.188 -149.95 445.53 -125.196C446.88 -110.927 447.753 -96.7483 448.587 -83.2199C449.201 -73.2494 449.793 -63.6321 450.538 -54.5919Z" stroke="#543021"/>
<path d="M438.026 -34.6068C438.762 1.9434 445.346 33.3384 452.845 60.7954C455.831 71.7295 458.964 82.0431 461.928 91.8049C462.685 94.297 463.431 96.7531 464.161 99.1744C467.751 111.086 470.95 122.153 473.15 132.543C477.549 153.323 477.931 171.319 469.49 187.835C461.044 204.36 443.717 219.498 412.473 234.435C352.749 262.99 278.354 237 218.432 185.49C158.525 133.993 113.274 57.1403 111.808 -15.6661C110.341 -88.5465 132.513 -147.64 170.715 -188.826C208.916 -230.012 263.184 -253.329 325.984 -254.593C357.349 -255.224 379.88 -247.118 396.085 -233.325C412.298 -219.524 422.234 -199.986 428.315 -177.655C434.396 -155.324 436.612 -130.238 437.413 -105.386C437.874 -91.0602 437.865 -76.8548 437.856 -63.3008C437.85 -53.3114 437.844 -43.6759 438.026 -34.6068Z" stroke="#543021"/>
<path d="M445.804 -46.4931C453.368 -10.7267 465.712 18.881 478.218 44.449C483.198 54.6309 488.206 64.1759 492.945 73.2102C494.155 75.5166 495.348 77.7896 496.518 80.0315C502.274 91.0602 507.489 101.333 511.594 111.128C519.805 130.717 523.549 148.324 518.348 166.128C513.145 183.941 498.957 202.055 471.062 222.577C417.738 261.806 339.794 250.201 271.288 210.817C202.801 171.445 143.964 104.42 128.897 33.1748C113.814 -38.1429 124.532 -100.342 154.35 -147.951C184.167 -195.56 233.11 -228.622 294.564 -241.619C325.257 -248.11 348.907 -244.364 367.407 -233.848C385.917 -223.327 399.335 -205.993 409.488 -185.195C419.642 -164.397 426.514 -140.169 431.952 -115.906C435.087 -101.92 437.737 -87.9642 440.266 -74.6482C442.129 -64.8342 443.927 -55.3678 445.804 -46.4931Z" stroke="#543021"/>
</g>
<defs>
<clipPath id="clip0_212_328">
<rect width="191" height="245" fill="white"/>
</clipPath>
</defs>
</svg>
