<svg width="591" height="591" viewBox="0 0 591 591" fill="none" xmlns="http://www.w3.org/2000/svg">
<g clip-path="url(#clip0_212_323)">
<path d="M780.538 35.4081C783.543 71.8421 792.064 102.768 801.254 129.706C804.914 140.433 808.68 150.532 812.246 160.091C813.156 162.531 814.053 164.937 814.932 167.308C819.255 178.973 823.136 189.821 825.976 200.054C831.657 220.521 833.156 238.458 825.757 255.467C818.354 272.484 802 288.669 771.745 305.518C713.909 337.727 638.045 316.408 575.038 268.719C512.048 221.043 462.111 147.148 456.127 74.5737C450.136 1.92509 468.594 -58.4318 504.164 -101.911C539.734 -145.39 592.448 -172.032 655.049 -177.194C686.315 -179.773 709.305 -173.081 726.336 -160.321C743.375 -147.554 754.505 -128.67 761.961 -106.761C769.418 -84.8503 773.188 -59.9502 775.53 -35.1961C776.88 -20.9268 777.753 -6.74828 778.587 6.78009C779.201 16.7506 779.793 26.3679 780.538 35.4081Z" stroke="#543021"/>
<path d="M768.026 55.3932C768.762 91.9434 775.346 123.338 782.845 150.795C785.831 161.729 788.964 172.043 791.928 181.805C792.685 184.297 793.431 186.753 794.161 189.174C797.751 201.086 800.951 212.153 803.15 222.543C807.549 243.323 807.931 261.319 799.49 277.835C791.044 294.36 773.717 309.498 742.473 324.435C682.749 352.99 608.355 327 548.432 275.49C488.525 223.993 443.274 147.14 441.808 74.3339C440.341 1.4535 462.513 -57.6404 500.715 -98.8264C538.916 -140.012 593.184 -163.329 655.984 -164.593C687.349 -165.224 709.88 -157.118 726.085 -143.325C742.298 -129.524 752.234 -109.986 758.315 -87.6551C764.396 -65.3237 766.612 -40.2376 767.413 -15.3858C767.874 -1.06016 767.865 13.1452 767.856 26.6992C767.85 36.6886 767.844 46.3241 768.026 55.3932Z" stroke="#543021"/>
<path d="M775.804 43.5069C783.368 79.2733 795.712 108.881 808.218 134.449C813.198 144.631 818.206 154.176 822.945 163.21C824.155 165.517 825.348 167.79 826.518 170.032C832.274 181.06 837.489 191.333 841.594 201.128C849.805 220.717 853.549 238.324 848.348 256.128C843.145 273.941 828.957 292.055 801.062 312.577C747.738 351.806 669.794 340.201 601.288 300.817C532.801 261.445 473.964 194.42 458.897 123.175C443.814 51.8571 454.532 -10.3423 484.35 -57.9512C514.167 -105.56 563.11 -138.622 624.564 -151.619C655.257 -158.11 678.907 -154.364 697.407 -143.848C715.917 -133.327 729.335 -115.993 739.488 -95.1954C749.642 -74.397 756.514 -50.169 761.952 -25.9063C765.087 -11.9202 767.737 2.03577 770.266 15.3518C772.129 25.1658 773.927 34.6322 775.804 43.5069Z" stroke="#543021"/>
</g>
<defs>
<clipPath id="clip0_212_323">
<rect width="591" height="591" fill="white"/>
</clipPath>
</defs>
</svg>
