<svg width="179" height="179" viewBox="0 0 179 179" fill="none" xmlns="http://www.w3.org/2000/svg">
<g clip-path="url(#clip0_212_378)">
<path d="M-122.889 -88.6493C-105.703 -98.5718 -92.5011 -109.924 -81.4163 -120.674C-77.0025 -124.955 -72.9214 -129.143 -69.0611 -133.105C-68.0759 -134.116 -67.1052 -135.112 -66.1469 -136.091C-61.4298 -140.911 -57.0169 -145.32 -52.6664 -149.075C-43.9648 -156.585 -35.5685 -161.435 -25.5948 -161.744C-15.6113 -162.053 -3.94051 -157.817 11.3076 -146.9C40.3784 -126.087 47.5088 -84.0814 38.7291 -42.186C29.9538 -0.31105 5.32292 41.2132 -28.7949 60.9112C-62.9768 80.6461 -96.7776 85.5592 -126.262 78.2077C-155.746 70.8563 -180.964 51.2284 -197.963 21.785C-206.445 7.09373 -208.471 -5.66914 -206.174 -16.9067C-203.874 -28.1549 -197.227 -37.9449 -188.233 -46.6547C-179.239 -55.3651 -167.924 -62.9684 -156.337 -69.8458C-149.653 -73.813 -142.916 -77.5182 -136.483 -81.056C-131.738 -83.6656 -127.159 -86.1841 -122.889 -88.6493Z" stroke="white"/>
<path d="M-115.246 -77.6793C-100.221 -90.6434 -89.3775 -104.266 -80.5009 -116.901C-76.9664 -121.932 -73.7413 -126.81 -70.6907 -131.425C-69.9122 -132.602 -69.1451 -133.762 -68.3871 -134.904C-64.6557 -140.522 -61.1458 -145.678 -57.5751 -150.181C-50.4332 -159.188 -43.093 -165.523 -33.3535 -167.694C-23.6043 -169.866 -11.3468 -167.889 5.67518 -160.02C38.1281 -145.016 52.9951 -105.087 52.2126 -62.2892C51.4306 -19.5117 35.0077 25.889 5.17996 51.6251C-24.7038 77.4094 -56.9875 88.5626 -87.3267 86.8599C-117.665 85.1573 -146.112 70.5968 -168.322 44.8556C-179.404 32.0117 -183.783 19.8537 -183.63 8.38465C-183.476 -3.0952 -178.78 -13.9563 -171.575 -24.1956C-164.369 -34.4358 -154.678 -44.0227 -144.583 -52.9473C-138.76 -58.0955 -132.835 -62.9963 -127.179 -67.6756C-123.006 -71.1272 -118.979 -74.4584 -115.246 -77.6793Z" stroke="white"/>
<path d="M-107.766 -103.245C-91.2288 -114.216 -78.7579 -126.366 -68.3622 -137.784C-64.2228 -142.331 -60.4097 -146.764 -56.8029 -150.958C-55.8824 -152.028 -54.9754 -153.083 -54.0798 -154.119C-49.6713 -159.223 -45.5406 -163.897 -41.4318 -167.915C-33.2135 -175.952 -25.1346 -181.313 -15.1993 -182.241C-5.25432 -183.17 6.65709 -179.667 22.5538 -169.718C52.8612 -150.751 62.5868 -109.269 56.4262 -66.9095C50.2686 -24.5703 28.2644 18.4036 -4.56414 40.1825C-37.4543 62.0024 -70.8847 69.0054 -100.769 63.4994C-130.652 57.9934 -157.041 39.9697 -175.836 11.6389C-185.214 -2.49711 -188.029 -15.1095 -186.434 -26.4681C-184.837 -37.8374 -178.811 -48.0213 -170.376 -57.2729C-161.939 -66.5252 -151.118 -74.8166 -139.981 -82.4003C-133.557 -86.775 -127.062 -90.8915 -120.862 -94.822C-116.288 -97.7213 -111.874 -100.519 -107.766 -103.245Z" stroke="white"/>
</g>
<defs>
<clipPath id="clip0_212_378">
<rect width="179" height="179" fill="white"/>
</clipPath>
</defs>
</svg>
