<svg width="255" height="255" viewBox="0 0 255 255" fill="none" xmlns="http://www.w3.org/2000/svg">
<g clip-path="url(#clip0_212_279)">
<path d="M-122.889 31.3507C-105.702 21.4282 -92.501 10.0759 -81.4162 -0.674449C-77.0025 -4.95501 -72.9213 -9.14317 -69.061 -13.1047C-68.0759 -14.1157 -67.1051 -15.1119 -66.1469 -16.0911C-61.4298 -20.9115 -57.0169 -25.3195 -52.6664 -29.0746C-43.9647 -36.5855 -35.5685 -41.4347 -25.5948 -41.7438C-15.6113 -42.0532 -3.94045 -37.8168 11.3076 -26.9C40.3785 -6.08688 47.5089 35.9186 38.7292 77.814C29.9538 119.689 5.32298 161.213 -28.7949 180.911C-62.9768 200.646 -96.7776 205.559 -126.262 198.208C-155.746 190.856 -180.964 171.228 -197.963 141.785C-206.445 127.094 -208.471 114.331 -206.174 103.093C-203.874 91.8452 -197.227 82.0551 -188.233 73.3453C-179.239 64.6349 -167.923 57.0316 -156.337 50.1542C-149.653 46.187 -142.916 42.4818 -136.483 38.944C-131.738 36.3345 -127.159 33.816 -122.889 31.3507Z" stroke="white"/>
<path d="M-115.246 42.3207C-100.221 29.3566 -89.3775 15.7339 -80.5009 3.09866C-76.9664 -1.93241 -73.7413 -6.81048 -70.6908 -11.4245C-69.9123 -12.6021 -69.1451 -13.7624 -68.3871 -14.9037C-64.6557 -20.5218 -61.1459 -25.6779 -57.5752 -30.181C-50.4332 -39.1879 -43.093 -45.523 -33.3535 -47.6936C-23.6044 -49.8663 -11.3468 -47.8893 5.67515 -40.0196C38.1281 -25.0159 52.9951 14.9125 52.2126 57.7108C51.4306 100.488 35.0076 145.889 5.17993 171.625C-24.7038 197.409 -56.9875 208.563 -87.3268 206.86C-117.666 205.157 -146.112 190.597 -168.322 164.856C-179.404 152.012 -183.784 139.854 -183.63 128.385C-183.476 116.905 -178.78 106.044 -171.575 95.8044C-164.369 85.5642 -154.678 75.9773 -144.583 67.0527C-138.76 61.9045 -132.835 57.0037 -127.179 52.3244C-123.006 48.8728 -118.979 45.5416 -115.246 42.3207Z" stroke="white"/>
<path d="M-107.766 16.755C-91.2288 5.78423 -78.7579 -6.36613 -68.3622 -17.7842C-64.2229 -22.3306 -60.4097 -26.7642 -56.8029 -30.9578C-55.8825 -32.028 -54.9754 -33.0826 -54.0799 -34.1195C-49.6713 -39.2235 -45.5407 -43.8971 -41.4318 -47.9152C-33.2135 -55.952 -25.1346 -61.3133 -15.1994 -62.2413C-5.25435 -63.1702 6.65706 -59.6668 22.5537 -49.7182C52.8612 -30.7508 62.5868 10.7307 56.4262 53.0905C50.2686 95.4297 28.2644 138.404 -4.56417 160.183C-37.4544 182.002 -70.8847 189.005 -100.769 183.499C-130.652 177.993 -157.041 159.97 -175.836 131.639C-185.214 117.503 -188.029 104.891 -186.434 93.5319C-184.837 82.1626 -178.811 71.9787 -170.376 62.7271C-161.939 53.4748 -151.118 45.1834 -139.981 37.5997C-133.557 33.225 -127.063 29.1085 -120.862 25.178C-116.288 22.2787 -111.874 19.4807 -107.766 16.755Z" stroke="white"/>
</g>
<defs>
<clipPath id="clip0_212_279">
<rect width="255" height="255" fill="white"/>
</clipPath>
</defs>
</svg>
