<svg width="968" height="925" viewBox="0 0 968 925" fill="none" xmlns="http://www.w3.org/2000/svg">
<path d="M28.3962 -29C28.3962 122.363 153.309 303.325 367.18 263.221C754.224 190.643 780.505 456.125 754.224 695.823C727.943 935.52 934.845 930.745 998.396 900.186" stroke="#C97043"/>
<path d="M22.0402 -30C18.459 121.379 167.57 345.333 371.735 270.262C723.259 141.006 798.185 472.958 766.25 712.06C734.314 951.162 923.254 936.248 987.49 907.188" stroke="#C97043"/>
<path d="M15.6414 -23.4462C14.103 127.967 185.098 375.025 382.896 284.5C601.396 184.5 835.896 380.5 769.795 708.505C722.141 944.976 929.811 930.554 993.648 900.63" stroke="#C97043"/>
</svg>
