<svg width="390" height="313" viewBox="0 0 390 313" fill="none" xmlns="http://www.w3.org/2000/svg">
<path d="M8.5671 -116.55C8.5671 -48.3968 68.2478 33.0837 170.43 15.0262C355.351 -17.6528 367.908 101.884 355.351 209.81C342.795 317.737 441.648 315.587 472.012 301.827" stroke="#C97043"/>
<path d="M5.53028 -117C3.81927 -48.8399 75.0614 51.9983 172.607 18.1964C340.557 -40.0027 376.355 109.463 361.097 217.121C345.839 324.78 436.11 318.064 466.801 304.98" stroke="#C97043"/>
<path d="M2.4731 -114.049C1.73809 -45.8734 83.4358 65.3675 177.939 24.6073C282.334 -20.4188 394.373 67.8325 362.791 215.521C340.023 321.995 439.243 315.501 469.743 302.027" stroke="#C97043"/>
</svg>
