<svg width="25" height="24" viewBox="0 0 25 24" fill="none" xmlns="http://www.w3.org/2000/svg">
<g id="Frame">
<path id="Vector" d="M3.19214 21.3298L4.50273 16.5762C3.69419 15.1852 3.269 13.6066 3.26949 11.9899C3.27192 6.93181 7.41485 2.81671 12.5064 2.81671C14.9772 2.81768 17.2958 3.77323 19.0399 5.50694C20.7835 7.24114 21.7438 9.54568 21.7428 11.9971C21.7409 17.0552 17.597 21.1708 12.5064 21.1708H12.5025C10.9569 21.1703 9.43766 20.7851 8.0886 20.0538L3.19214 21.3298Z" fill="white"/>
<path id="Vector_2" d="M3.19188 21.5715C3.12767 21.5715 3.0654 21.5464 3.01918 21.5C2.95837 21.4385 2.93453 21.3492 2.9574 21.2665L4.24123 16.6091C3.44534 15.2045 3.0255 13.6095 3.02648 11.9903C3.02842 6.79838 7.28079 2.57501 12.5062 2.57501C15.0408 2.57598 17.4221 3.55666 19.2119 5.33629C21.0017 7.11641 21.9868 9.48184 21.9859 11.9971C21.9839 17.1886 17.731 21.4124 12.5062 21.4124C10.9547 21.412 9.41991 21.0316 8.05775 20.3119L3.25367 21.5632C3.23323 21.569 3.2128 21.5715 3.19188 21.5715Z" fill="white"/>
<path id="Vector_3" d="M12.5066 2.81671C14.9775 2.81767 17.2961 3.77322 19.0402 5.50694C20.7837 7.24114 21.7441 9.54567 21.7431 11.9971C21.7411 17.0552 17.5972 21.1708 12.5066 21.1708H12.5028C10.9572 21.1703 9.43789 20.7851 8.08883 20.0538L3.19238 21.3299L4.50297 16.5762C3.69443 15.1852 3.26924 13.6066 3.26973 11.9899C3.27216 6.93181 7.41508 2.81671 12.5066 2.81671ZM12.5066 2.33337C7.14751 2.33337 2.78567 6.66501 2.78324 11.9899C2.78275 13.6173 3.19627 15.221 3.98048 16.6406L2.72292 21.2027C2.67719 21.3695 2.72389 21.5474 2.84648 21.6701C2.93892 21.7629 3.06394 21.8136 3.19238 21.8136C3.23373 21.8136 3.27508 21.8083 3.31594 21.7977L8.02851 20.57C9.40429 21.2796 10.9465 21.6541 12.5028 21.6546C17.8658 21.6546 22.2276 17.3225 22.23 11.9977C22.231 9.41711 21.2206 6.99077 19.385 5.16571C17.5486 3.34016 15.1059 2.33434 12.5066 2.33337Z" fill="#DEE2E5"/>
<path id="Vector_4" d="M17.9369 6.60217C16.4871 5.16087 14.5602 4.36676 12.5092 4.36627C8.27478 4.36627 4.83093 7.78631 4.82898 11.9903C4.82849 13.4312 5.23422 14.8338 6.00287 16.0484L6.18579 16.337L5.40984 19.1504L8.31564 18.3935L8.59631 18.5588C9.77458 19.2539 11.126 19.6212 12.5038 19.6217H12.5067C16.7382 19.6217 20.182 16.2011 20.1834 11.9967C20.184 9.95938 19.3866 8.04345 17.9369 6.60217Z" fill="#40C351"/>
<path id="Vector_5" fill-rule="evenodd" clip-rule="evenodd" d="M10.1978 8.15505C10.025 7.77321 9.84309 7.76548 9.67821 7.75871C9.54342 7.75291 9.38969 7.75337 9.23596 7.75337C9.08223 7.75337 8.83218 7.81091 8.62059 8.04046C8.40893 8.27008 7.8125 8.82443 7.8125 9.95253C7.8125 11.0806 8.63953 12.171 8.75486 12.3238C8.87012 12.4765 10.3515 14.8656 12.6973 15.7849C14.6467 16.5486 15.0436 16.3968 15.4669 16.3586C15.8901 16.3205 16.8325 15.8043 17.0246 15.2687C17.2168 14.7332 17.2168 14.2745 17.1594 14.1788C17.1015 14.0831 16.9477 14.0261 16.7171 13.911C16.4866 13.796 15.3516 13.2416 15.14 13.1653C14.9284 13.0889 14.7746 13.0507 14.6204 13.2803C14.4667 13.5094 14.0245 14.0261 13.8897 14.1788C13.755 14.332 13.6202 14.3514 13.3896 14.2363C13.159 14.1213 12.4156 13.8796 11.5337 13.0986C10.8477 12.491 10.3846 11.7404 10.2498 11.5108C10.1151 11.2817 10.2352 11.1575 10.351 11.0429C10.4546 10.94 10.5816 10.7752 10.6974 10.6413C10.8127 10.5074 10.8511 10.4117 10.928 10.259C11.0048 10.1058 10.9664 9.97186 10.9085 9.85735C10.8516 9.74231 10.4031 8.60841 10.1978 8.15505Z" fill="white"/>
</g>
</svg>
